<svg width="103" height="116" viewBox="0 0 103 116" fill="none" xmlns="http://www.w3.org/2000/svg">
<g clip-path="url(#clip0_42_351)">
<path d="M38.8125 46.875H61.125L80.875 46.9375H88.875L89.125 47.0625L89.6875 48.125L90.3125 49.875L90.875 51.75L91.3125 53.5625L91.75 55.9375L91.875 57.5L91.9375 59V60.0625L91.8125 62L91.625 63.5L91.3125 65.25L90.875 67L90.1875 69.0625L89.5625 70.5625L88.8125 72.125L87.9375 73.6875L86.625 75.625L85.875 76.625L85.3125 77.3125L84.5625 78.1875L83.875 78.9375L83.625 79.25L83.125 79.6875L82.5 80.3125L81.8125 80.875L81 81.5625L79.8125 82.4375L79 83L78.0625 83.625L76.25 84.5625L75.25 85.0625L74.75 85.375L74.5625 85.625L74.5 85.8125L74.4375 86.5625V105.062L74.375 108.625L74.3125 109L73.25 109.062H67.5L45.8125 109L45.375 108.938L45.3125 108.875L45.25 108.062V100.812L45.125 100.25L44.9375 100.125H43.5L40.25 100.5L39.25 100.562H35.1875L33.6875 100.438L31.8125 100.125L30 99.75L28.875 99.375L27.875 98.875L27.3125 98.4375L26.875 97.9375L26.5625 97.25L26.25 96.0625L26 94.375L25.875 92.875L25.8125 90.75L25.75 83.0625L25.5625 82.9375L24.4375 82.8125L22.375 82.75L21 82.5L19.0625 82.125L18.125 81.8125L18 81.625V81.0625L18.25 80L19.125 77.75L19.875 76L20.625 74.3125L21.375 72.6875L21.875 71.6875L22.3125 70.6875L22.9375 69.5L23.375 68.5L23.9375 67.4375L24.6875 65.75L24.9375 65.125L25.125 64.125L25.375 61.875L26.1875 57.5L26.625 55.5L27.375 52.5L27.625 51.75L27.9375 51.0625L28.375 50L29 48.8125L29.625 47.75L30.125 47.0625L30.3125 47L31.125 46.9375L38.8125 46.875Z" fill="#9C33C9"/>
<path d="M67.125 27.875H68.1875L69.8125 28.0625L71.3125 28.375L72.6875 28.8125L73.625 29.1875L74.625 29.6875L75.8125 30.3125L77 31.0625L78.0625 31.875L78.6875 32.4375L79.5 33.25L80.1875 34.125L80.9375 35.25L81.8125 36.8125L82.5625 38.625L83 40.125L83.4375 42.1875L83.625 43.375V44.375L83.0625 44.4375L81.75 44.5L79.125 44.5625H73.8125L53.0625 44.5L52.25 44.3125L52.125 44.1875V43.25L52.3125 41.4375L52.625 39.9375L53.125 38.25L53.6875 36.9375L54.1875 35.9375L54.6875 35.0625L55.25 34.25L55.625 33.75L56.3125 32.9375L57.3125 31.9375L58.125 31.3125L58.875 30.75L60.0625 30L61.5 29.25L62.875 28.75L64.5 28.25L65.875 28L67.125 27.875Z" fill="#9C33C9"/>
<path d="M34.3125 24.4375L34.6875 24.5625L35.8125 25.0625L37 25.625L38.875 26.375L44.6875 28.875L46.4375 29.5L46.8125 29.75L46.9375 29.875V30.375L46.5 31.375L45.75 32.9375L44.9375 34.8125L44.375 36.125L42.75 39.875L41.875 41.875L41.5625 42.5625L41.5 42.8125L41.25 42.75L40.25 42.25L38.3125 41.3125L34.25 39.5625L32.875 38.9375L30.5 37.9375L29.1875 37.375L29 37.1875L29.0625 36.6875L29.5 35.6875L30.1875 34.125L30.75 32.8125L31.25 31.625L32 29.875L32.375 28.9375L32.6875 28.25L33.375 26.625L34.125 24.9375L34.3125 24.4375Z" fill="#9C33C9"/>
<path d="M77.6875 13.5625H77.9375L78 14.8125L78.0625 17.0625L78.25 27.9375V29.4375L78 29.3125L76.4375 28.5L74.25 27.1875L72.4375 26.125L70.75 25.1875L69.25 24.3125L67.5625 23.375L66.3125 22.625L65.4375 22.0625L64.875 21.75L64.1875 21.3125L64.4375 21.0625L65.75 20.4375L67.25 19.5625L68.9375 18.625L70 18L71.8125 16.9375L73.0625 16.1875L74.4375 15.375L75.9375 14.5L76.875 13.9375L77.6875 13.5625Z" fill="#9C33C9"/>
<path d="M56.3125 9.6875H58L61.1875 9.9375L63 10.125L63.25 10.1875V10.9375L62.9375 15.1875L62.875 16.5L62.6875 16.9375L62.125 17L60.5 16.875L59.75 16.8125L56.25 16.75L56.125 16.6875V15.3125L56.1875 14L56.25 9.75L56.3125 9.6875Z" fill="#9C33C9"/>
<path d="M47.6875 9.6875H47.9375V18.1875L47.875 19.25L47.5 19.1875L46.4375 18.625L45.25 17.875L43.875 17.0625L43 16.5625L41.9375 15.9375L40.5 15.0625L39.8125 14.5625L39.625 14.25L40.4375 13.75L41.3125 13.25L42 12.875L43.125 12.1875L44.5625 11.375L46.0625 10.5L47.0625 9.9375L47.6875 9.6875Z" fill="#9C33C9"/>
<path d="M55.3125 20.3125H55.75L56.5 20.5L57.4375 21L58.0625 21.5V21.625H58.1875L58.75 22.375L59.125 23.1875L59.25 23.6875V24.5L59.1875 25.0625L58.8125 25.8125L58.25 26.4375L57.5625 26.9375L56.5625 27.5L55.9375 27.6875H55.5L54.625 27.4375L54 27.0625L53.1875 26.4375L52.6875 25.75L52.3125 25L52.1875 24.5V23.375L52.375 22.625L52.6875 22L53.25 21.375L54.0625 20.8125L54.9375 20.4375L55.3125 20.3125Z" fill="#9C33C9"/>
<path d="M70.6875 3.875H71.3125L71.9375 4.125L72.3125 4.4375L72.75 5.1875L72.875 5.5625V6.0625L72.625 6.625L72.3125 7L71.4375 7.4375L71.0625 7.375L69.9375 6.8125L69.5 6.25L69.4375 6.125V5.375L69.8125 4.625L70.3125 4.0625L70.6875 3.875Z" fill="#9C33C9"/>
<path d="M84.125 17.4375H84.6875L85.375 17.6875L85.75 18L86.0625 18.5L86.125 18.6875V19.125L85.75 19.875L85.4375 20.1875L84.9375 20.4375L84.375 20.5L83.5 19.875L83.125 19.375L83.0625 19.1875V18.625L83.25 18.125L83.5625 17.75L84.125 17.4375Z" fill="#9C33C9"/>
<path d="M42.875 20.9375H43.5L44 21.125L44.4375 21.5L44.6875 22.0625L44.625 22.375L44.3125 23L44 23.25L43.3125 23.6875L42.9375 23.625L42.4375 23.25L42.125 22.875L42 22.1875L42.0625 21.5625L42.3125 21.1875L42.625 21L42.875 20.9375Z" fill="#9C33C9"/>
</g>
<defs>
<clipPath id="clip0_42_351">
<rect width="103" height="116" fill="white"/>
</clipPath>
</defs>
</svg>
