<svg width="91" height="90" viewBox="0 0 91 90" fill="none" xmlns="http://www.w3.org/2000/svg">
<path d="M32.677 70.3125H24.2395V78.75H32.677V70.3125Z" fill="#FC5404"/>
<path d="M32.677 56.25H24.2395V64.6875H32.677V56.25Z" fill="#FC5404"/>
<path d="M32.677 42.1875H24.2395V50.625H32.677V42.1875Z" fill="#FC5404"/>
<path d="M49.552 70.3125H41.1145V78.75H49.552V70.3125Z" fill="#FC5404"/>
<path d="M49.552 56.25H41.1145V64.6875H49.552V56.25Z" fill="#FC5404"/>
<path d="M49.552 42.1875H41.1145V50.625H49.552V42.1875Z" fill="#FC5404"/>
<path d="M66.427 56.25H57.9895V78.75H66.427V56.25Z" fill="#FC5404"/>
<path d="M66.427 42.1875H57.9895V50.625H66.427V42.1875Z" fill="#FC5404"/>
<path d="M69.7064 0H20.9628C16.5601 0 12.9895 3.57064 12.9895 7.97063V82.0296C12.9895 86.4295 16.5601 90 20.9628 90H69.7064C74.1092 90 77.677 86.4295 77.677 82.0294V7.97063C77.677 3.57064 74.1092 0 69.7064 0ZM24.2395 12.6562H66.427V26.7188H24.2395V12.6562ZM73.4583 82.0294C73.4583 84.0976 71.7746 85.7812 69.7064 85.7812H20.9628C18.8947 85.7812 17.2083 84.0976 17.2083 82.0294V34.6866H73.4583V82.0294Z" fill="#FC5404"/>
</svg>
