<svg width="800" height="800" viewBox="0 0 800 800" fill="none" xmlns="http://www.w3.org/2000/svg">
<g clip-path="url(#clip0_619_55)">
<path d="M406.25 719.188C585.544 719.188 730.891 573.841 730.891 394.547C730.891 215.253 585.544 69.9062 406.25 69.9062C226.956 69.9062 81.6094 215.253 81.6094 394.547C81.6094 573.841 226.956 719.188 406.25 719.188Z" fill="#CDCCD2"/>
<path d="M406.172 698.312C573.937 698.312 709.937 562.312 709.937 394.547C709.937 226.782 573.937 90.7812 406.172 90.7812C238.407 90.7812 102.406 226.782 102.406 394.547C102.406 562.312 238.407 698.312 406.172 698.312Z" fill="white"/>
<path d="M479.547 285.562V236.484C479.547 236.484 349.625 207.093 366.25 362.5H316V419.828H366.187L366.281 568.859H426.797L426.406 419.828H476.953L484.031 362.5H426.766C426.766 362.5 409.094 272.922 474.625 289.422C475.21 289.566 475.821 289.576 476.41 289.45C477 289.323 477.553 289.064 478.027 288.692C478.501 288.32 478.885 287.845 479.148 287.303C479.412 286.76 479.548 286.165 479.547 285.562Z" fill="#4075BC"/>
</g>
<defs>
<clipPath id="clip0_619_55">
<rect width="800" height="800" fill="white"/>
</clipPath>
</defs>
</svg>
