<svg width="121" height="120" viewBox="0 0 121 120" fill="none" xmlns="http://www.w3.org/2000/svg">
<path d="M60.896 11.1094C63.7437 11.1094 66.0522 8.80084 66.0522 5.95312C66.0522 3.10541 63.7437 0.796875 60.896 0.796875C58.0483 0.796875 55.7397 3.10541 55.7397 5.95312C55.7397 8.80084 58.0483 11.1094 60.896 11.1094Z" fill="#94D30A"/>
<path d="M67.5522 61.3594C67.8335 60.8437 68.021 60.2812 68.021 59.6719V20.2031C68.021 19.7812 68.2554 19.5469 68.6772 19.5469C69.0991 19.5469 69.3335 19.7812 69.3335 20.2031V34.7812C69.3335 36 70.3647 37.0781 71.6304 37.0781C72.8491 37.0781 73.9272 36.0469 73.9272 34.7812V18.8906C73.9272 15.3281 70.9741 12.4219 67.4585 12.4219H54.4272C50.8647 12.4219 47.9585 15.375 47.9585 18.8906V34.7344C47.9585 35.9531 48.9897 37.0312 50.2554 37.0312C51.4741 37.0312 52.5522 36 52.5522 34.7344V20.2031C52.5522 19.7812 52.7866 19.5469 53.2085 19.5469C53.6304 19.5469 53.8647 19.7812 53.8647 20.2031V59.6719C53.8647 60.1875 53.9585 60.5625 54.146 61.0312C40.7866 63.7969 30.7085 75.6562 30.7085 89.8125C30.7085 104.484 41.4897 116.625 55.5054 118.828L57.146 119.016C58.1304 119.109 59.1147 119.156 60.146 119.156C76.3647 119.156 89.5835 105.937 89.5835 89.7187C89.5366 76.1719 80.1616 64.6875 67.5522 61.3594ZM60.2397 59.6719V37.0312C60.2397 36.6094 60.4741 36.375 60.896 36.375C61.3179 36.375 61.5522 36.6094 61.5522 37.0312V59.6719C61.5522 60.2344 61.6929 60.75 61.9272 61.125L59.9116 61.0781C60.146 60.7031 60.2397 60.1875 60.2397 59.6719ZM66.2866 115.219C65.8179 114.375 65.6772 113.484 66.521 113.016C67.5054 112.453 68.5835 112.219 69.521 111.609C71.021 110.578 71.9585 108.141 70.7397 106.594C69.2397 104.719 66.2866 104.578 64.0835 104.437C60.6147 104.25 57.8491 104.531 55.1772 101.719C53.1616 99.5625 51.8022 96.5156 48.5679 96.0469C46.4116 95.7656 44.6304 96.6562 43.8335 98.6719C42.9429 101.016 43.4585 103.875 43.9272 106.219C44.3022 107.953 44.7241 109.594 45.2397 111.234C40.9741 108.234 37.646 104.062 35.7241 99.0937C37.5522 99.1875 39.3335 98.7187 40.9741 97.8281C43.3179 96.6094 44.7241 93.1875 47.4429 93.1406C48.8022 93.1406 49.3647 92.7188 49.7866 91.3125C50.3022 89.5781 49.0835 88.0312 48.3335 86.625C47.8647 85.8281 46.646 83.3437 48.3804 83.2031C49.5522 83.0625 50.9116 84 51.9429 84.5156C54.0991 85.5469 56.771 85.3594 58.9272 84.5625C60.8491 83.8594 62.396 82.4062 63.1929 80.4844C63.7085 79.2187 63.8491 77.9531 64.5522 76.7812C64.5522 76.7812 61.1304 76.5469 58.7866 79.0781C56.396 81.6562 56.396 80.2969 54.9897 80.0625C54.0991 79.9219 54.8022 79.5 54.9897 78.9375C55.646 77.1562 52.3647 76.3594 50.8647 75.9844C51.7085 74.7188 53.5835 74.0625 54.8022 73.2656C55.3179 72.8906 56.5366 72 55.9272 71.25C54.896 69.9375 52.6929 69.7969 51.2397 69.9375C48.1929 70.1719 45.521 72.0469 42.9429 70.3125C47.5366 66.2812 53.5835 63.7969 60.1929 63.7969C69.0522 63.7969 76.8335 68.2031 81.521 74.8594C79.1304 78.1406 72.4272 76.3125 68.9585 76.9687C67.3179 77.25 65.3491 78.5156 64.8804 80.2031C64.271 82.2656 67.0366 82.5937 65.9585 84.7969C64.9741 86.7187 62.1616 86.6719 61.2241 88.7344C60.5679 90.1875 61.0835 91.7812 62.2085 92.8125C64.7866 95.2969 69.146 95.2969 72.521 96C71.4897 98.8125 71.4897 101.953 75.0054 102.797C77.771 103.453 81.0054 102.562 83.7241 101.344C80.2554 108.187 73.9272 113.344 66.2866 115.219Z" fill="#94D30A"/>
</svg>
