<svg width="504" height="410" viewBox="0 0 504 410" fill="none" xmlns="http://www.w3.org/2000/svg">
<rect x="98" y="134" width="311" height="271" fill="#F2F2F2"/>
<rect x="5" y="5" width="494" height="22" fill="#F2F2F2"/>
<path d="M6 27H500.5C500.5 27 478.517 34.4577 471 45C464.997 53.4187 465 66 465 66H43C43 66 42.4132 50.6273 37 42.5C29.3945 31.0811 6 27 6 27Z" fill="#C7C7C7"/>
<rect x="86" y="128" width="334" height="29" rx="11" fill="#F2F2F2"/>
<path d="M50 66H455V78C455 105.614 432.614 128 405 128H100C72.3858 128 50 105.614 50 78V66Z" fill="#C7C7C7"/>
<path d="M50 66H455C455 66 455.896 77.0279 455 84C454.046 91.4229 449 102 449 102H56C56 102 51.1878 91.6264 50 84.5C48.8123 77.3736 50 66 50 66Z" fill="#F2F2F2"/>
<rect x="99" y="228" width="62" height="177" fill="#D9D9D9"/>
<rect x="203" y="228" width="62" height="177" fill="#D9D9D9"/>
<rect x="337" y="248" width="72" height="157" fill="#D9D9D9"/>
<path d="M98 215H409V305L98 259V215Z" fill="#B2B2B2" fill-opacity="0.67"/>
<rect x="87" y="219" width="334" height="29" rx="11" fill="#F2F2F2"/>
<path d="M87 232H421V237C421 243.075 416.075 248 410 248H98C91.9249 248 87 243.075 87 237V232Z" fill="#D9D9D9"/>
<path d="M98 134H409V181L98 167.626V134Z" fill="#B2B2B2" fill-opacity="0.67"/>
<rect x="87" y="128" width="334" height="29" rx="11" fill="#F2F2F2"/>
<path d="M87 141H421V146C421 152.075 416.075 157 410 157H98C91.9249 157 87 152.075 87 146V141Z" fill="#D9D9D9"/>
<mask id="path-16-outside-1_626_182" maskUnits="userSpaceOnUse" x="0" y="0" width="504" height="410" fill="black">
<rect fill="white" width="504" height="410"/>
<path fill-rule="evenodd" clip-rule="evenodd" d="M5 5H499V27C499 27 477.084 34.4577 469.59 45C463.605 53.4187 463.608 66 463.608 66H455C455 66 455.896 77.0279 455 84C454.685 86.4527 453.923 89.2498 453.044 91.896C452.218 94.7568 451.143 97.5122 449.845 100.137C449.333 101.301 449 102 449 102H448.874C440.38 117.495 423.917 128 405 128H409H410C416.075 128 421 132.925 421 139V141V146C421 152.075 416.075 157 410 157H409V181V215V219H410C416.075 219 421 223.925 421 230V232V237C421 243.075 416.075 248 410 248H409V305V405H337H265H203H161H99H98V259V248C91.9249 248 87 243.075 87 237V232V230C87 223.925 91.9249 219 98 219V215V167.626V157H97C90.9249 157 86 152.075 86 146V139C86 132.925 90.9249 128 97 128H98H100C81.0831 128 64.6198 117.495 56.1259 102H56C56 102 55.726 101.409 55.2925 100.413C53.867 97.5747 52.7037 94.5822 51.8345 91.4671C51.0475 89.0986 50.3586 86.6513 50 84.5C48.8168 77.4002 49.9912 66.085 50 66.0005V66H42.8878C42.8878 66 42.3028 50.6273 36.906 42.5C29.3235 31.0811 6 27 6 27H5V5Z"/>
</mask>
<path d="M499 5H504V0H499V5ZM5 5V0H0V5H5ZM499 27L500.611 31.7335L504 30.5801V27H499ZM469.59 45L465.514 42.103L465.514 42.103L469.59 45ZM463.608 66V71H468.609L468.608 65.9989L463.608 66ZM455 84L459.959 84.6374L459.959 84.6374L455 84ZM453.044 91.896L448.299 90.3196L448.267 90.4137L448.24 90.509L453.044 91.896ZM449.845 100.137L445.363 97.9206L445.313 98.0223L445.267 98.1261L449.845 100.137ZM449 102V107H452.155L453.513 104.153L449 102ZM448.874 102V97H445.913L444.49 99.5965L448.874 102ZM409 157V152H404V157H409ZM409 219H404V224H409V219ZM409 248V243H404V248H409ZM409 405V410H414V405H409ZM98 405H93V410H98V405ZM98 248H103V243H98V248ZM98 219V224H103V219H98ZM98 157H103V152H98V157ZM56.1259 102L60.5103 99.5965L59.0869 97H56.1259V102ZM56 102L51.4643 104.104L52.8077 107H56V102ZM55.2925 100.413L59.8775 98.4182L59.8224 98.2917L59.7605 98.1684L55.2925 100.413ZM51.8345 91.4671L56.6506 90.1233L56.6178 90.0059L56.5794 89.8903L51.8345 91.4671ZM50 84.5L54.932 83.678L54.932 83.678L50 84.5ZM50 66.0005L54.9731 66.5183L55 66.2601V66.0005H50ZM50 66H55V61H50V66ZM42.8878 66L37.8914 66.1901L38.0744 71H42.8878V66ZM36.906 42.5L41.0713 39.7341L41.0713 39.7341L36.906 42.5ZM6 27L6.8618 22.0748L6.43415 22H6V27ZM5 27H0V32H5V27ZM499 0H5V10H499V0ZM504 27V5H494V27H504ZM473.665 47.897C476.628 43.7278 482.958 39.6848 489.327 36.5259C492.382 35.0105 495.226 33.8036 497.307 32.9759C498.344 32.5631 499.186 32.2472 499.761 32.0369C500.048 31.9318 500.269 31.8532 500.413 31.8022C500.486 31.7768 500.539 31.7582 500.572 31.7467C500.589 31.7409 500.601 31.7369 500.607 31.7347C500.61 31.7336 500.612 31.733 500.613 31.7327C500.613 31.7326 500.613 31.7326 500.613 31.7328C500.613 31.7328 500.612 31.733 500.612 31.733C500.611 31.7332 500.611 31.7335 499 27C497.389 22.2665 497.388 22.2668 497.388 22.2671C497.387 22.2673 497.386 22.2676 497.385 22.2679C497.384 22.2685 497.382 22.2692 497.379 22.27C497.375 22.2716 497.368 22.2736 497.361 22.2762C497.346 22.2812 497.327 22.2881 497.301 22.2968C497.251 22.3141 497.181 22.3387 497.091 22.3704C496.911 22.4339 496.653 22.5258 496.326 22.6452C495.674 22.8839 494.744 23.233 493.61 23.6841C491.348 24.5841 488.244 25.9006 484.883 27.5673C478.42 30.7729 470.045 35.7299 465.514 42.103L473.665 47.897ZM463.608 66C468.608 65.9989 468.608 66 468.608 66.0011C468.608 66.0014 468.608 66.0024 468.608 66.003C468.608 66.0041 468.608 66.0051 468.608 66.0059C468.608 66.0075 468.608 66.0084 468.608 66.0085C468.608 66.0088 468.608 66.0061 468.608 66.0005C468.608 65.9894 468.608 65.9667 468.609 65.9331C468.61 65.8658 468.612 65.7548 468.617 65.6039C468.626 65.302 468.647 64.8425 468.688 64.2574C468.772 63.0827 468.94 61.4254 469.277 59.5335C469.969 55.6478 471.292 51.2347 473.665 47.897L465.514 42.103C461.902 47.184 460.235 53.2709 459.432 57.7806C459.021 60.0863 458.816 62.1004 458.713 63.5479C458.662 64.2738 458.635 64.863 458.622 65.282C458.615 65.4916 458.612 65.6591 458.61 65.7802C458.609 65.8408 458.608 65.8898 458.608 65.9268C458.608 65.9453 458.608 65.9608 458.608 65.9732C458.608 65.9794 458.608 65.9848 458.608 65.9895C458.608 65.9918 458.608 65.9939 458.608 65.9959C458.608 65.9969 458.608 65.9982 458.608 65.9986C458.608 65.9999 458.608 66.0011 463.608 66ZM455 71H463.608V61H455V71ZM459.959 84.6374C460.461 80.7375 460.447 75.9074 460.334 72.2312C460.276 70.3554 460.189 68.7072 460.117 67.5263C460.08 66.935 460.048 66.4588 460.024 66.1274C460.012 65.9616 460.002 65.8318 459.995 65.7418C459.992 65.6969 459.989 65.6617 459.987 65.637C459.986 65.6246 459.985 65.6147 459.985 65.6074C459.984 65.6038 459.984 65.6006 459.984 65.5979C459.984 65.5966 459.984 65.5951 459.983 65.5934C459.983 65.5924 459.983 65.5902 459.983 65.5888C459.983 65.5849 458.384 62.3193 455 61V71C451.616 69.6807 450.017 66.4152 450.017 66.4114C450.017 66.4102 450.017 66.4083 450.017 66.4077C450.017 66.4073 450.017 66.4066 450.017 66.4065C450.017 66.4064 450.017 66.4061 450.017 66.4061C450.017 66.4061 450.017 66.4069 450.017 66.4086C450.017 66.412 450.017 66.418 450.018 66.4267C450.02 66.4441 450.022 66.4718 450.025 66.5093C450.03 66.5842 450.039 66.6982 450.05 66.8476C450.071 67.1465 450.102 67.5863 450.135 68.1378C450.203 69.2425 450.284 70.787 450.338 72.5398C450.449 76.1205 450.436 80.2904 450.041 83.3626L459.959 84.6374ZM457.789 93.4724C458.711 90.6975 459.585 87.5522 459.959 84.6374L450.041 83.3626C449.785 85.3533 449.135 87.8022 448.299 90.3196L457.789 93.4724ZM454.327 102.354C455.755 99.4652 456.938 96.4324 457.847 93.2829L448.24 90.509C447.497 93.0813 446.531 95.5592 445.363 97.9206L454.327 102.354ZM449 102C453.513 104.153 453.513 104.153 453.513 104.153C453.513 104.153 453.513 104.153 453.513 104.152C453.513 104.152 453.513 104.152 453.513 104.152C453.513 104.151 453.514 104.151 453.514 104.151C453.514 104.15 453.515 104.149 453.516 104.147C453.517 104.145 453.518 104.141 453.52 104.137C453.524 104.13 453.529 104.119 453.535 104.106C453.548 104.079 453.565 104.042 453.587 103.995C453.631 103.901 453.694 103.766 453.773 103.594C453.931 103.251 454.154 102.759 454.422 102.148L445.267 98.1261C445.024 98.6794 444.825 99.119 444.688 99.416C444.62 99.5644 444.567 99.6769 444.533 99.75C444.516 99.7866 444.503 99.8133 444.496 99.8296C444.492 99.8378 444.489 99.8433 444.488 99.8463C444.487 99.8477 444.487 99.8485 444.487 99.8487C444.487 99.8488 444.487 99.8487 444.487 99.8484C444.487 99.8483 444.487 99.8481 444.487 99.8479C444.487 99.8478 444.487 99.8476 444.487 99.8475C444.487 99.8474 444.487 99.8473 444.487 99.8473C444.487 99.8472 444.487 99.8471 449 102ZM448.874 107H449V97H448.874V107ZM405 133C425.815 133 443.922 121.435 453.259 104.403L444.49 99.5965C436.838 113.555 422.018 123 405 123V133ZM409 123H405V133H409V123ZM410 123H409V133H410V123ZM426 139C426 130.163 418.837 123 410 123V133C413.314 133 416 135.686 416 139H426ZM426 141V139H416V141H426ZM416 141V146H426V141H416ZM410 162C418.837 162 426 154.837 426 146H416C416 149.314 413.314 152 410 152V162ZM410 152H409V162H410V152ZM414 181V157H404V181H414ZM414 215V181H404V215H414ZM414 219V215H404V219H414ZM410 214H409V224H410V214ZM426 230C426 221.163 418.837 214 410 214V224C413.314 224 416 226.686 416 230H426ZM426 232V230H416V232H426ZM426 237V232H416V237H426ZM410 253C418.837 253 426 245.837 426 237H416C416 240.314 413.314 243 410 243V253ZM409 253H410V243H409V253ZM414 305V248H404V305H414ZM414 405V305H404V405H414ZM337 410H409V400H337V410ZM265 410H337V400H265V410ZM203 410H265V400H203V410ZM161 410H203V400H161V410ZM99 410H161V400H99V410ZM98 410H99V400H98V410ZM93 259V405H103V259H93ZM93 248V259H103V248H93ZM82 237C82 245.837 89.1634 253 98 253V243C94.6863 243 92 240.314 92 237H82ZM82 232V237H92V232H82ZM82 230V232H92V230H82ZM98 214C89.1634 214 82 221.163 82 230H92C92 226.686 94.6863 224 98 224V214ZM93 215V219H103V215H93ZM93 167.626V215H103V167.626H93ZM93 157V167.626H103V157H93ZM97 162H98V152H97V162ZM81 146C81 154.837 88.1634 162 97 162V152C93.6863 152 91 149.314 91 146H81ZM81 139V146H91V139H81ZM97 123C88.1634 123 81 130.163 81 139H91C91 135.686 93.6863 133 97 133V123ZM98 123H97V133H98V123ZM100 123H98V133H100V123ZM51.7414 104.403C61.0777 121.435 79.1847 133 100 133V123C82.9815 123 68.1619 113.555 60.5103 99.5965L51.7414 104.403ZM56 107H56.1259V97H56V107ZM50.7075 102.407C50.9338 102.927 51.1196 103.344 51.2504 103.634C51.3158 103.78 51.3676 103.893 51.4038 103.972C51.4219 104.012 51.4362 104.043 51.4463 104.065C51.4514 104.076 51.4555 104.085 51.4585 104.091C51.46 104.095 51.4612 104.097 51.4622 104.1C51.4627 104.101 51.4631 104.101 51.4635 104.102C51.4637 104.103 51.4638 104.103 51.464 104.103C51.464 104.103 51.4641 104.104 51.4642 104.104C51.4642 104.104 51.4642 104.104 51.4643 104.104C51.4643 104.104 51.4643 104.104 56 102C60.5358 99.8959 60.5358 99.896 60.5358 99.8961C60.5359 99.8961 60.5359 99.8962 60.5359 99.8962C60.536 99.8963 60.536 99.8964 60.536 99.8965C60.5361 99.8967 60.5362 99.8968 60.5362 99.8969C60.5363 99.8971 60.5363 99.8971 60.5363 99.897C60.5362 99.8968 60.5358 99.8961 60.5352 99.8948C60.534 99.8921 60.5318 99.8872 60.5285 99.8802C60.522 99.866 60.5115 99.8431 60.4971 99.8118C60.4684 99.7491 60.4246 99.6527 60.3673 99.5256C60.2527 99.2714 60.0847 98.8946 59.8775 98.4182L50.7075 102.407ZM47.0185 92.8108C47.9753 96.2401 49.2558 99.534 50.8245 102.657L59.7605 98.1684C58.4781 95.6154 57.4321 92.9243 56.6506 90.1233L47.0185 92.8108ZM45.0681 85.322C45.4876 87.8389 46.2654 90.5634 47.0897 93.0439L56.5794 89.8903C55.8296 87.6338 55.2296 85.4638 54.932 83.678L45.0681 85.322ZM45.0269 65.4827C45.0165 65.5823 44.7095 68.5485 44.5569 72.4227C44.4077 76.2104 44.3879 81.2409 45.0681 85.322L54.932 83.678C54.4289 80.6593 54.4047 76.4823 54.5491 72.8163C54.6901 69.2368 54.9747 66.5031 54.9731 66.5183L45.0269 65.4827ZM45 66V66.0005H55V66H45ZM42.8878 71H50V61H42.8878V71ZM32.7407 45.2659C34.827 48.4079 36.1913 53.3998 36.9905 58.1306C37.374 60.4009 37.601 62.4418 37.7316 63.913C37.7967 64.6463 37.8373 65.2322 37.8613 65.6272C37.8733 65.8245 37.8812 65.9738 37.8858 66.0696C37.8882 66.1174 37.8897 66.1519 37.8906 66.1722C37.8911 66.1824 37.8913 66.189 37.8915 66.192C37.8915 66.1935 37.8915 66.1941 37.8915 66.1938C37.8915 66.1937 37.8915 66.1933 37.8915 66.1927C37.8915 66.1924 37.8914 66.1917 37.8914 66.1916C37.8914 66.1909 37.8914 66.1901 42.8878 66C47.8842 65.8099 47.8841 65.809 47.8841 65.8081C47.8841 65.8077 47.884 65.8067 47.884 65.8059C47.8839 65.8044 47.8839 65.8026 47.8838 65.8006C47.8836 65.7965 47.8834 65.7915 47.8832 65.7856C47.8827 65.7738 47.8821 65.7583 47.8812 65.7391C47.8796 65.7008 47.8772 65.6479 47.8739 65.5812C47.8674 65.4478 47.8574 65.2588 47.8429 65.02C47.8138 64.5425 47.7666 63.8639 47.6925 63.029C47.5447 61.3639 47.2881 59.0537 46.8508 56.4649C46.0083 51.4775 44.3817 44.7195 41.0713 39.7341L32.7407 45.2659ZM6 27C5.1382 31.9252 5.13727 31.925 5.13644 31.9249C5.13628 31.9248 5.13553 31.9247 5.13521 31.9246C5.13456 31.9245 5.13427 31.9245 5.13432 31.9245C5.13442 31.9245 5.13591 31.9248 5.13877 31.9253C5.1445 31.9263 5.15569 31.9283 5.17222 31.9313C5.20527 31.9373 5.2596 31.9473 5.33405 31.9614C5.48297 31.9896 5.7121 32.0341 6.012 32.0956C6.61227 32.2188 7.49336 32.4097 8.58034 32.6743C10.7619 33.2052 13.7342 34.0235 16.9115 35.1707C23.5879 37.5815 29.9155 41.0114 32.7407 45.2659L41.0713 39.7341C36.3139 32.5698 27.1886 28.2497 20.3077 25.7651C16.7062 24.4647 13.3737 23.549 10.9452 22.9579C9.72714 22.6615 8.72683 22.4443 8.02198 22.2997C7.66933 22.2273 7.38995 22.173 7.19352 22.1358C7.09529 22.1172 7.01773 22.1029 6.96206 22.0928C6.93422 22.0877 6.91185 22.0837 6.89509 22.0807C6.88671 22.0792 6.87974 22.078 6.87418 22.077C6.87141 22.0765 6.86898 22.0761 6.86692 22.0757C6.86589 22.0755 6.86461 22.0753 6.86409 22.0752C6.8629 22.075 6.8618 22.0748 6 27ZM5 32H6V22H5V32ZM0 5V27H10V5H0Z" fill="black" mask="url(#path-16-outside-1_626_182)"/>
</svg>
