<svg width="225" height="165" viewBox="0 0 225 165" fill="none" xmlns="http://www.w3.org/2000/svg">
<g clip-path="url(#clip0_197_4)">
<mask id="path-1-outside-1_197_4" maskUnits="userSpaceOnUse" x="0" y="1" width="226" height="163" fill="black">
<rect fill="white" y="1" width="226" height="163"/>
<path d="M61.418 153.8C51.8607 153.8 43.1567 151.411 35.306 146.632C27.7967 141.512 21.8233 134.685 17.386 126.152C12.9487 117.277 10.73 107.208 10.73 95.944C10.73 87.0693 12.6073 78.3653 16.362 69.832C20.1167 61.2986 25.2367 53.2773 31.722 45.768C38.5487 38.2587 46.3993 31.6027 55.274 25.8C64.1487 19.9973 73.706 15.56 83.946 12.488L103.402 36.04C90.09 42.184 79.1673 49.1813 70.634 57.032C62.1007 64.8826 57.834 71.7093 57.834 77.512C57.834 81.9493 59.7113 85.8747 63.466 89.288C67.2207 92.7013 70.634 95.7733 73.706 98.504C81.2153 104.648 86.1647 109.768 88.554 113.864C91.2847 117.96 92.65 122.227 92.65 126.664C92.65 134.856 89.7487 141.512 83.946 146.632C78.1433 151.411 70.634 153.8 61.418 153.8ZM167.402 153.8C157.845 153.8 149.141 151.411 141.29 146.632C133.781 141.512 127.807 134.685 123.37 126.152C118.933 117.277 116.714 107.208 116.714 95.944C116.714 87.0693 118.591 78.3653 122.346 69.832C126.101 61.2986 131.221 53.2773 137.706 45.768C144.533 38.2587 152.383 31.6027 161.258 25.8C170.133 19.9973 179.69 15.56 189.93 12.488L209.386 36.04C196.074 42.184 185.151 49.1813 176.618 57.032C168.085 64.8826 163.818 71.7093 163.818 77.512C163.818 81.9493 165.695 85.8747 169.45 89.288C173.205 92.7013 176.618 95.7733 179.69 98.504C187.199 104.648 192.149 109.768 194.538 113.864C197.269 117.96 198.634 122.227 198.634 126.664C198.634 134.856 195.733 141.512 189.93 146.632C184.127 151.411 176.618 153.8 167.402 153.8Z"/>
</mask>
<path d="M35.306 146.632L29.6726 154.894L29.886 155.04L30.1065 155.174L35.306 146.632ZM17.386 126.152L8.44173 130.624L8.47722 130.695L8.51383 130.765L17.386 126.152ZM16.362 69.832L7.20885 65.8046L7.20885 65.8046L16.362 69.832ZM31.722 45.768L24.3226 39.0412L24.237 39.1354L24.1538 39.2318L31.722 45.768ZM55.274 25.8L49.8015 17.4303L49.8015 17.4303L55.274 25.8ZM83.946 12.488L91.6556 6.11916L87.429 1.00276L81.0725 2.90971L83.946 12.488ZM103.402 36.04L107.593 45.1196L119.379 39.6795L111.112 29.6712L103.402 36.04ZM73.706 98.504L67.0624 105.978L67.2153 106.114L67.3736 106.244L73.706 98.504ZM88.554 113.864L79.9162 118.903L80.0672 119.162L80.2335 119.411L88.554 113.864ZM83.946 146.632L90.3031 154.351L90.4345 154.243L90.5622 154.13L83.946 146.632ZM141.29 146.632L135.657 154.894L135.87 155.04L136.091 155.174L141.29 146.632ZM123.37 126.152L114.426 130.624L114.461 130.695L114.498 130.765L123.37 126.152ZM122.346 69.832L113.193 65.8046L113.193 65.8046L122.346 69.832ZM137.706 45.768L130.307 39.0412L130.221 39.1354L130.138 39.2318L137.706 45.768ZM189.93 12.488L197.64 6.11916L193.413 1.00276L187.057 2.90971L189.93 12.488ZM209.386 36.04L213.577 45.1196L225.363 39.6795L217.096 29.6712L209.386 36.04ZM179.69 98.504L173.046 105.978L173.199 106.114L173.358 106.244L179.69 98.504ZM194.538 113.864L185.9 118.903L186.051 119.162L186.217 119.411L194.538 113.864ZM189.93 146.632L196.287 154.351L196.419 154.243L196.546 154.13L189.93 146.632ZM61.418 143.8C53.6181 143.8 46.7252 141.876 40.5055 138.09L30.1065 155.174C39.5881 160.945 50.1033 163.8 61.418 163.8V143.8ZM40.9394 138.37C34.874 134.234 29.9795 128.695 26.2582 121.538L8.51383 130.765C13.6672 140.676 20.7193 148.79 29.6726 154.894L40.9394 138.37ZM26.3303 121.68C22.6759 114.371 20.73 105.867 20.73 95.944H0.730001C0.730001 108.549 3.22143 120.184 8.44173 130.624L26.3303 121.68ZM20.73 95.944C20.73 88.5257 22.2902 81.1888 25.5152 73.8594L7.20885 65.8046C2.92449 75.5418 0.730001 85.613 0.730001 95.944H20.73ZM25.5152 73.8594C28.8442 66.2932 33.4132 59.1091 39.2902 52.3042L24.1538 39.2318C17.0601 47.4455 11.3891 56.3041 7.20885 65.8046L25.5152 73.8594ZM39.1214 52.4947C45.353 45.64 52.5493 39.5294 60.7465 34.1697L49.8015 17.4303C40.2493 23.676 31.7444 30.8773 24.3226 39.0412L39.1214 52.4947ZM60.7465 34.1697C68.8107 28.897 77.4917 24.8646 86.8195 22.0662L81.0725 2.90971C69.9203 6.25537 59.4867 11.0977 49.8015 17.4303L60.7465 34.1697ZM76.2364 18.8568L95.6924 42.4088L111.112 29.6712L91.6556 6.11916L76.2364 18.8568ZM99.2114 26.9604C85.1929 33.4305 73.3335 40.9602 63.8634 49.6727L77.4046 64.3913C85.0012 57.4024 94.9871 50.9375 107.593 45.1196L99.2114 26.9604ZM63.8634 49.6727C55.0776 57.7557 47.834 67.1561 47.834 77.512H67.834C67.834 76.2625 69.1238 72.0096 77.4046 64.3913L63.8634 49.6727ZM47.834 77.512C47.834 85.184 51.23 91.679 56.7393 96.6874L70.1927 81.8886C68.1927 80.0704 67.834 78.7146 67.834 77.512H47.834ZM56.7393 96.6874C60.5154 100.12 63.957 103.218 67.0624 105.978L80.3497 91.0299C77.311 88.3289 73.9259 85.2824 70.1927 81.8886L56.7393 96.6874ZM67.3736 106.244C74.7192 112.254 78.4778 116.437 79.9162 118.903L97.1918 108.825C93.8515 103.099 87.7114 97.0424 80.0384 90.7644L67.3736 106.244ZM80.2335 119.411C81.9935 122.051 82.65 124.414 82.65 126.664H102.65C102.65 120.039 100.576 113.869 96.8745 108.317L80.2335 119.411ZM82.65 126.664C82.65 132.177 80.8422 136.034 77.3298 139.134L90.5622 154.13C98.6552 146.99 102.65 137.535 102.65 126.664H82.65ZM77.5889 138.913C73.9545 141.906 68.8564 143.8 61.418 143.8V163.8C72.4116 163.8 82.3322 160.916 90.3031 154.351L77.5889 138.913ZM167.402 143.8C159.602 143.8 152.709 141.876 146.489 138.09L136.091 155.174C145.572 160.945 156.087 163.8 167.402 163.8V143.8ZM146.923 138.37C140.858 134.234 135.964 128.695 132.242 121.538L114.498 130.765C119.651 140.676 126.703 148.79 135.657 154.894L146.923 138.37ZM132.314 121.68C128.66 114.371 126.714 105.867 126.714 95.944H106.714C106.714 108.549 109.205 120.184 114.426 130.624L132.314 121.68ZM126.714 95.944C126.714 88.5257 128.274 81.1889 131.499 73.8594L113.193 65.8046C108.908 75.5418 106.714 85.613 106.714 95.944H126.714ZM131.499 73.8594C134.828 66.2932 139.397 59.1091 145.274 52.3042L130.138 39.2318C123.044 47.4455 117.373 56.3041 113.193 65.8046L131.499 73.8594ZM145.105 52.4947C151.337 45.64 158.533 39.5294 166.731 34.1697L155.786 17.4303C146.233 23.676 137.728 30.8773 130.307 39.0412L145.105 52.4947ZM166.731 34.1697C174.795 28.897 183.476 24.8646 192.803 22.0662L187.057 2.90971C175.904 6.25537 165.471 11.0977 155.786 17.4303L166.731 34.1697ZM182.22 18.8568L201.676 42.4088L217.096 29.6712L197.64 6.11916L182.22 18.8568ZM205.195 26.9604C191.177 33.4305 179.317 40.9602 169.847 49.6727L183.389 64.3913C190.985 57.4024 200.971 50.9375 213.577 45.1196L205.195 26.9604ZM169.847 49.6727C161.062 57.7557 153.818 67.1561 153.818 77.512H173.818C173.818 76.2625 175.108 72.0096 183.389 64.3913L169.847 49.6727ZM153.818 77.512C153.818 85.184 157.214 91.679 162.723 96.6874L176.177 81.8886C174.177 80.0704 173.818 78.7146 173.818 77.512H153.818ZM162.723 96.6874C166.499 100.12 169.941 103.218 173.046 105.978L186.334 91.0299C183.295 88.3289 179.91 85.2824 176.177 81.8886L162.723 96.6874ZM173.358 106.244C180.703 112.254 184.462 116.437 185.9 118.903L203.176 108.825C199.836 103.099 193.695 97.0424 186.022 90.7644L173.358 106.244ZM186.217 119.411C187.978 122.051 188.634 124.414 188.634 126.664H208.634C208.634 120.039 206.56 113.869 202.859 108.317L186.217 119.411ZM188.634 126.664C188.634 132.177 186.826 136.034 183.314 139.134L196.546 154.13C204.639 146.99 208.634 137.535 208.634 126.664H188.634ZM183.573 138.913C179.939 141.906 174.84 143.8 167.402 143.8V163.8C178.396 163.8 188.316 160.916 196.287 154.351L183.573 138.913Z" fill="url(#paint0_linear_197_4)" fill-opacity="0.85" mask="url(#path-1-outside-1_197_4)"/>
</g>
<defs>
<linearGradient id="paint0_linear_197_4" x1="-200.818" y1="-239" x2="349.85" y2="-191.793" gradientUnits="userSpaceOnUse">
<stop stop-color="#9C33C9"/>
<stop offset="1" stop-color="#14093E"/>
</linearGradient>
<clipPath id="clip0_197_4">
<rect width="225" height="165" fill="white"/>
</clipPath>
</defs>
</svg>
