<svg width="800" height="800" viewBox="0 0 800 800" fill="none" xmlns="http://www.w3.org/2000/svg">
<rect x="86.5" y="85.5" width="628" height="628" rx="314" fill="white"/>
<rect x="86.5" y="85.5" width="628" height="628" rx="314" stroke="#CDCCD2" stroke-width="21"/>
<path d="M310.355 445.037C312.211 429.672 318.513 421.07 330.388 412.251C347.38 400.307 368.604 407.063 368.604 407.063V366.984C373.765 366.851 378.927 367.157 384.029 367.897V419.476C384.029 419.476 362.811 412.72 345.82 424.67C333.951 433.483 327.637 442.092 325.787 457.457C325.729 465.8 327.295 476.706 334.506 486.136C332.722 485.222 330.905 484.181 329.054 483.012C313.171 472.346 310.278 456.346 310.355 445.037ZM471.668 292.875C459.979 280.067 455.558 267.135 453.961 258.051H468.665C468.665 258.051 465.733 281.87 487.1 305.295L487.396 305.61C481.637 301.987 476.356 297.712 471.668 292.875ZM542.5 329.188V379.729C542.5 379.729 523.738 378.995 509.852 375.463C490.463 370.521 478.001 362.944 478.001 362.944C478.001 362.944 469.393 357.541 468.697 357.164V461.533C468.697 467.344 467.106 481.857 462.254 493.961C455.919 509.796 446.145 520.189 444.347 522.314C444.347 522.314 432.459 536.363 411.486 545.825C392.581 554.359 375.982 554.143 371.02 554.359C371.02 554.359 342.328 555.496 316.509 538.717C310.925 535.017 305.714 530.829 300.941 526.204L301.07 526.296C326.896 543.076 355.582 541.939 355.582 541.939C360.55 541.723 377.148 541.939 396.047 533.405C417.001 523.944 428.909 509.895 428.909 509.895C430.687 507.77 440.507 497.376 446.815 481.536C451.654 469.438 453.258 454.918 453.258 449.108V344.751C453.954 345.134 462.556 350.537 462.556 350.537C462.556 350.537 475.025 358.122 494.413 363.056C508.305 366.588 527.063 367.323 527.063 367.323V327.718C533.48 329.157 538.951 329.547 542.5 329.188Z" fill="#EE1D52"/>
<path d="M527.073 327.718V367.31C527.073 367.31 508.315 366.575 494.424 363.044C475.036 358.103 462.567 350.525 462.567 350.525C462.567 350.525 453.965 345.122 453.269 344.738V449.12C453.269 454.931 451.678 469.45 446.825 481.548C440.491 497.389 430.717 507.782 428.919 509.907C428.919 509.907 417.025 523.956 396.057 533.418C377.158 541.952 360.561 541.736 355.592 541.952C355.592 541.952 326.906 543.089 301.081 526.31L300.952 526.217C298.225 523.576 295.659 520.789 293.265 517.868C285.023 507.819 279.972 495.937 278.702 492.546V492.504C276.66 486.613 272.369 472.464 272.955 458.76C273.992 434.582 282.498 419.742 284.746 416.024C290.702 405.886 298.448 396.815 307.64 389.216C315.751 382.658 324.945 377.44 334.844 373.776C345.546 369.475 357.005 367.169 368.608 366.984V407.063C368.608 407.063 347.383 400.332 330.398 412.251C318.523 421.07 312.221 429.672 310.366 445.037C310.288 456.346 313.181 472.346 329.052 483.018C330.903 484.191 332.72 485.233 334.503 486.142C337.275 489.746 340.65 492.887 344.49 495.437C359.993 505.25 372.983 505.936 389.595 499.562C400.671 495.301 409.008 485.698 412.875 475.057C415.304 468.413 415.272 461.724 415.272 454.808V258.051H453.933C455.531 267.135 459.951 280.067 471.639 292.875C476.328 297.711 481.61 301.987 487.368 305.61C489.07 307.37 497.768 316.071 508.934 321.413C514.708 324.174 520.795 326.29 527.073 327.718Z" fill="black"/>
<path d="M263.31 480.237V480.268L264.269 482.869C264.159 482.566 263.803 481.646 263.31 480.237Z" fill="#69C9D0"/>
<path d="M334.84 373.775C324.94 377.44 315.747 382.658 307.635 389.215C298.441 396.832 290.696 405.922 284.748 416.079C282.499 419.785 273.994 434.637 272.957 458.814C272.37 472.518 276.662 486.667 278.704 492.558V492.601C279.993 495.962 285.025 507.843 293.266 517.922C295.66 520.843 298.227 523.632 300.953 526.271C292.217 520.48 284.426 513.48 277.834 505.496C269.664 495.535 264.625 483.777 263.311 480.306C263.309 480.281 263.309 480.256 263.311 480.232V480.188C261.262 474.303 256.957 460.148 257.557 446.426C258.594 422.249 267.1 407.409 269.348 403.691C275.295 393.532 283.039 384.441 292.235 376.827C300.345 370.266 309.539 365.048 319.44 361.387C325.615 358.931 332.049 357.12 338.629 355.984C348.544 354.325 358.673 354.18 368.636 355.558V366.983C357.022 367.164 345.551 369.47 334.84 373.775Z" fill="#69C9D0"/>
<path d="M453.958 258.05H415.296V454.814C415.296 461.73 415.296 468.4 412.9 475.063C408.995 485.698 400.689 495.3 389.619 499.562C373.002 505.961 360.012 505.251 344.515 495.437C340.668 492.898 337.285 489.768 334.502 486.173C347.705 492.923 359.522 492.806 374.161 487.174C385.225 482.912 393.544 473.309 397.435 462.669C399.871 456.024 399.838 449.336 399.838 442.425V245.625H453.223C453.223 245.625 452.624 250.516 453.958 258.05ZM527.065 316.769V327.718C520.798 326.287 514.723 324.172 508.959 321.413C497.793 316.071 489.093 307.369 487.393 305.609C489.366 306.851 491.415 307.981 493.526 308.993C507.103 315.49 520.473 317.429 527.065 316.769Z" fill="#69C9D0"/>
</svg>
